<svg width="32" height="26" viewBox="0 0 32 26" fill="none" xmlns="http://www.w3.org/2000/svg">
<path d="M22.4 12.8C19.305 12.8 16.8 10.295 16.8 7.2C16.8 4.105 19.305 1.6 22.4 1.6C25.495 1.6 28 4.105 28 7.2C28 10.295 25.495 12.8 22.4 12.8ZM18.56 14.4H18.975C20.015 14.9 21.17 15.2 22.4 15.2C23.63 15.2 24.78 14.9 25.825 14.4H26.24C29.42 14.4 32 16.98 32 20.16V21.6C32 22.925 30.925 24 29.6 24H15.2C13.875 24 12.8 22.925 12.8 21.6V20.16C12.8 16.98 15.38 14.4 18.56 14.4ZM8 12.8C5.35 12.8 3.2 10.65 3.2 8C3.2 5.35 5.35 3.2 8 3.2C10.65 3.2 12.8 5.35 12.8 8C12.8 10.65 10.65 12.8 8 12.8ZM5.6 14.4H5.79C6.485 14.64 7.22 14.8 8 14.8C8.78 14.8 9.515 14.64 10.21 14.4H10.4C11.42 14.4 12.36 14.695 13.185 15.17C11.965 16.485 11.2 18.23 11.2 20.16V22.08C11.2 22.19 11.225 22.295 11.23 22.4H2.4C1.075 22.4 -4.76837e-07 21.325 -4.76837e-07 20C-4.76837e-07 16.905 2.505 14.4 5.6 14.4Z" fill="black"/>
</svg>
